<svg xmlns="http://www.w3.org/2000/svg" viewBox="0 0 500 500" width="100%" height="100%" role="img" aria-label="Caja Chica">
  <path d="M 151 44 H 349 C 374 44 392 63 392 88 V 362 C 392 387 376 410 357 410 C 340 438 306 438 289 410 C 272 438 228 438 211 410 C 194 438 160 438 143 410 C 124 410 108 387 108 362 V 88 C 108 63 126 44 151 44 Z"
        fill="#ffffff"
        stroke="#1d4230"
        stroke-width="24"
        stroke-linejoin="round"
        stroke-linecap="round"/>

  <circle cx="250" cy="157" r="70" fill="#1d4230"/>
  <text x="250" y="164"
        fill="#ffffff"
        font-family="Arial, Helvetica, sans-serif"
        font-weight="bold"
        font-size="108"
        text-anchor="middle"
        dominant-baseline="central">$</text>

  <line x1="166" y1="289" x2="334" y2="289" stroke="#5a1926" stroke-width="16" stroke-linecap="round"/>
  <line x1="166" y1="329" x2="314" y2="329" stroke="#1d4230" stroke-width="16" stroke-linecap="round"/>
  <line x1="166" y1="369" x2="284" y2="369" stroke="#1d4230" stroke-width="16" stroke-linecap="round"/>
</svg>
